<mxfile host="65bd71144e">
    <diagram id="PJFkf4QXhe2FlLdB7wsy" name="Page-1">
        <mxGraphModel dx="1836" dy="3136" grid="1" gridSize="10" guides="1" tooltips="1" connect="1" arrows="1" fold="1" page="1" pageScale="1" pageWidth="850" pageHeight="1100" math="0" shadow="0">
            <root>
                <mxCell id="0"/>
                <mxCell id="1" parent="0"/>
                <mxCell id="6" style="edgeStyle=none;html=1;exitX=0;exitY=1;exitDx=0;exitDy=0;entryX=0;entryY=0;entryDx=40;entryDy=0;endArrow=open;endFill=0;endSize=20;entryPerimeter=0;shadow=1;" edge="1" parent="1" source="5" target="8">
                    <mxGeometry relative="1" as="geometry">
                        <mxPoint x="545" y="130" as="targetPoint"/>
                    </mxGeometry>
                </mxCell>
                <mxCell id="7" style="edgeStyle=none;html=1;exitX=1;exitY=1;exitDx=0;exitDy=0;entryX=0;entryY=0;entryDx=40;entryDy=0;endArrow=open;endFill=0;endSize=20;entryPerimeter=0;shadow=1;" edge="1" parent="1" source="5" target="9">
                    <mxGeometry relative="1" as="geometry">
                        <mxPoint x="675" y="130" as="targetPoint"/>
                    </mxGeometry>
                </mxCell>
                <mxCell id="5" value="y" style="ellipse;whiteSpace=wrap;html=1;aspect=fixed;fontSize=41;fillColor=#d80073;strokeColor=#A50040;fontColor=#ffffff;shadow=1;" vertex="1" parent="1">
                    <mxGeometry x="580" y="10" width="60" height="60" as="geometry"/>
                </mxCell>
                <mxCell id="8" value="" style="verticalLabelPosition=bottom;verticalAlign=top;html=1;shape=mxgraph.basic.acute_triangle;dx=0.5;fontSize=41;align=center;fillColor=#008a00;strokeColor=#005700;fontColor=#ffffff;shadow=1;" vertex="1" parent="1">
                    <mxGeometry x="500" y="130" width="80" height="70" as="geometry"/>
                </mxCell>
                <mxCell id="10" value="l" style="text;html=1;strokeColor=none;fillColor=none;align=center;verticalAlign=middle;whiteSpace=wrap;rounded=0;fontSize=41;shadow=1;" vertex="1" parent="1">
                    <mxGeometry x="520" y="170" width="40" height="20" as="geometry"/>
                </mxCell>
                <mxCell id="9" value="" style="verticalLabelPosition=bottom;verticalAlign=top;html=1;shape=mxgraph.basic.acute_triangle;dx=0.5;fontSize=41;fillColor=#008a00;strokeColor=#005700;fontColor=#ffffff;shadow=1;" vertex="1" parent="1">
                    <mxGeometry x="640" y="130" width="80" height="70" as="geometry"/>
                </mxCell>
                <mxCell id="11" value="r" style="text;html=1;strokeColor=none;fillColor=none;align=center;verticalAlign=middle;whiteSpace=wrap;rounded=0;fontSize=41;shadow=1;" vertex="1" parent="1">
                    <mxGeometry x="660" y="170" width="40" height="20" as="geometry"/>
                </mxCell>
                <mxCell id="14" value="" style="shape=curlyBracket;whiteSpace=wrap;html=1;rounded=1;flipH=1;shadow=1;fontSize=41;verticalAlign=top;" vertex="1" parent="1">
                    <mxGeometry x="730" y="130" width="20" height="70" as="geometry"/>
                </mxCell>
                <mxCell id="15" value="" style="shape=curlyBracket;whiteSpace=wrap;html=1;rounded=1;shadow=1;fontSize=41;verticalAlign=top;" vertex="1" parent="1">
                    <mxGeometry x="470" y="130" width="20" height="70" as="geometry"/>
                </mxCell>
                <mxCell id="16" value="h" style="text;html=1;strokeColor=none;fillColor=none;align=center;verticalAlign=middle;whiteSpace=wrap;rounded=0;shadow=1;fontSize=29;" vertex="1" parent="1">
                    <mxGeometry x="750" y="152.5" width="30" height="25" as="geometry"/>
                </mxCell>
                <mxCell id="17" value="h" style="text;html=1;strokeColor=none;fillColor=none;align=center;verticalAlign=middle;whiteSpace=wrap;rounded=0;shadow=1;fontSize=29;" vertex="1" parent="1">
                    <mxGeometry x="440" y="152.5" width="30" height="25" as="geometry"/>
                </mxCell>
                <mxCell id="18" value="1" style="ellipse;whiteSpace=wrap;html=1;aspect=fixed;shadow=1;fontSize=29;verticalAlign=middle;fillColor=#a20025;strokeColor=#6F0000;fontColor=#ffffff;" vertex="1" parent="1">
                    <mxGeometry x="360" y="80" width="50" height="50" as="geometry"/>
                </mxCell>
                <mxCell id="19" value="" style="shape=curlyBracket;whiteSpace=wrap;html=1;rounded=1;flipH=1;shadow=1;fontSize=41;verticalAlign=top;" vertex="1" parent="1">
                    <mxGeometry x="780" y="20" width="20" height="180" as="geometry"/>
                </mxCell>
                <mxCell id="20" value="h+1" style="text;html=1;strokeColor=none;fillColor=none;align=center;verticalAlign=middle;whiteSpace=wrap;rounded=0;shadow=1;fontSize=29;" vertex="1" parent="1">
                    <mxGeometry x="800" y="97.5" width="50" height="25" as="geometry"/>
                </mxCell>
                <mxCell id="31" style="edgeStyle=none;html=1;exitX=0;exitY=1;exitDx=0;exitDy=0;entryX=0;entryY=0;entryDx=40;entryDy=0;endArrow=open;endFill=0;endSize=20;entryPerimeter=0;shadow=1;" edge="1" parent="1" source="33" target="34">
                    <mxGeometry relative="1" as="geometry">
                        <mxPoint x="525" y="400" as="targetPoint"/>
                    </mxGeometry>
                </mxCell>
                <mxCell id="32" style="edgeStyle=none;html=1;exitX=1;exitY=1;exitDx=0;exitDy=0;entryX=0;entryY=0;entryDx=40;entryDy=0;endArrow=open;endFill=0;endSize=20;entryPerimeter=0;shadow=1;" edge="1" parent="1" source="33" target="36">
                    <mxGeometry relative="1" as="geometry">
                        <mxPoint x="655" y="400" as="targetPoint"/>
                    </mxGeometry>
                </mxCell>
                <mxCell id="33" value="y" style="ellipse;whiteSpace=wrap;html=1;aspect=fixed;fontSize=41;fillColor=#d80073;strokeColor=#A50040;fontColor=#ffffff;shadow=1;" vertex="1" parent="1">
                    <mxGeometry x="560" y="280" width="60" height="60" as="geometry"/>
                </mxCell>
                <mxCell id="34" value="" style="verticalLabelPosition=bottom;verticalAlign=top;html=1;shape=mxgraph.basic.acute_triangle;dx=0.5;fontSize=41;align=center;fillColor=#008a00;strokeColor=#005700;fontColor=#ffffff;shadow=1;" vertex="1" parent="1">
                    <mxGeometry x="480" y="400" width="80" height="120" as="geometry"/>
                </mxCell>
                <mxCell id="35" value="l" style="text;html=1;strokeColor=none;fillColor=none;align=center;verticalAlign=middle;whiteSpace=wrap;rounded=0;fontSize=41;shadow=1;" vertex="1" parent="1">
                    <mxGeometry x="500" y="470" width="40" height="20" as="geometry"/>
                </mxCell>
                <mxCell id="36" value="" style="verticalLabelPosition=bottom;verticalAlign=top;html=1;shape=mxgraph.basic.acute_triangle;dx=0.5;fontSize=41;fillColor=#008a00;strokeColor=#005700;fontColor=#ffffff;shadow=1;" vertex="1" parent="1">
                    <mxGeometry x="620" y="400" width="80" height="70" as="geometry"/>
                </mxCell>
                <mxCell id="37" value="r" style="text;html=1;strokeColor=none;fillColor=none;align=center;verticalAlign=middle;whiteSpace=wrap;rounded=0;fontSize=41;shadow=1;" vertex="1" parent="1">
                    <mxGeometry x="640" y="440" width="40" height="20" as="geometry"/>
                </mxCell>
                <mxCell id="38" value="" style="shape=curlyBracket;whiteSpace=wrap;html=1;rounded=1;flipH=1;shadow=1;fontSize=41;verticalAlign=top;" vertex="1" parent="1">
                    <mxGeometry x="710" y="400" width="20" height="70" as="geometry"/>
                </mxCell>
                <mxCell id="39" value="" style="shape=curlyBracket;whiteSpace=wrap;html=1;rounded=1;shadow=1;fontSize=41;verticalAlign=top;" vertex="1" parent="1">
                    <mxGeometry x="450" y="400" width="20" height="120" as="geometry"/>
                </mxCell>
                <mxCell id="40" value="h" style="text;html=1;strokeColor=none;fillColor=none;align=center;verticalAlign=middle;whiteSpace=wrap;rounded=0;shadow=1;fontSize=29;" vertex="1" parent="1">
                    <mxGeometry x="730" y="422.5" width="30" height="25" as="geometry"/>
                </mxCell>
                <mxCell id="41" value="h+1" style="text;html=1;strokeColor=none;fillColor=none;align=center;verticalAlign=middle;whiteSpace=wrap;rounded=0;shadow=1;fontSize=29;" vertex="1" parent="1">
                    <mxGeometry x="390" y="445" width="60" height="25" as="geometry"/>
                </mxCell>
                <mxCell id="42" value="2" style="ellipse;whiteSpace=wrap;html=1;aspect=fixed;shadow=1;fontSize=29;verticalAlign=middle;fillColor=#a20025;strokeColor=#6F0000;fontColor=#ffffff;" vertex="1" parent="1">
                    <mxGeometry x="360" y="350" width="50" height="50" as="geometry"/>
                </mxCell>
                <mxCell id="43" value="" style="shape=curlyBracket;whiteSpace=wrap;html=1;rounded=1;flipH=1;shadow=1;fontSize=41;verticalAlign=top;" vertex="1" parent="1">
                    <mxGeometry x="760" y="290" width="20" height="230" as="geometry"/>
                </mxCell>
                <mxCell id="44" value="h+2" style="text;html=1;strokeColor=none;fillColor=none;align=center;verticalAlign=middle;whiteSpace=wrap;rounded=0;shadow=1;fontSize=29;" vertex="1" parent="1">
                    <mxGeometry x="780" y="367.5" width="50" height="25" as="geometry"/>
                </mxCell>
                <mxCell id="53" value="Do Nothing&lt;br&gt;(Tree is balanced)" style="text;html=1;strokeColor=none;fillColor=none;align=center;verticalAlign=middle;whiteSpace=wrap;rounded=0;shadow=1;fontSize=29;" vertex="1" parent="1">
                    <mxGeometry x="890" y="60" width="190" height="100" as="geometry"/>
                </mxCell>
                <mxCell id="67" style="edgeStyle=none;html=1;exitX=0;exitY=1;exitDx=0;exitDy=0;entryX=0;entryY=0;entryDx=40;entryDy=0;endArrow=open;endFill=0;endSize=20;entryPerimeter=0;shadow=1;" edge="1" parent="1" source="69" target="70">
                    <mxGeometry relative="1" as="geometry">
                        <mxPoint x="1005" y="400" as="targetPoint"/>
                    </mxGeometry>
                </mxCell>
                <mxCell id="68" style="edgeStyle=none;html=1;exitX=1;exitY=1;exitDx=0;exitDy=0;entryX=0;entryY=0;entryDx=40;entryDy=0;endArrow=open;endFill=0;endSize=20;entryPerimeter=0;shadow=1;" edge="1" parent="1" source="69" target="72">
                    <mxGeometry relative="1" as="geometry">
                        <mxPoint x="1135" y="400" as="targetPoint"/>
                    </mxGeometry>
                </mxCell>
                <mxCell id="69" value="y" style="ellipse;whiteSpace=wrap;html=1;aspect=fixed;fontSize=41;fillColor=#d80073;strokeColor=#A50040;fontColor=#ffffff;shadow=1;" vertex="1" parent="1">
                    <mxGeometry x="1040" y="280" width="60" height="60" as="geometry"/>
                </mxCell>
                <mxCell id="70" value="" style="verticalLabelPosition=bottom;verticalAlign=top;html=1;shape=mxgraph.basic.acute_triangle;dx=0.5;fontSize=41;align=center;fillColor=#008a00;strokeColor=#005700;fontColor=#ffffff;shadow=1;" vertex="1" parent="1">
                    <mxGeometry x="960" y="400" width="80" height="70" as="geometry"/>
                </mxCell>
                <mxCell id="71" value="l" style="text;html=1;strokeColor=none;fillColor=none;align=center;verticalAlign=middle;whiteSpace=wrap;rounded=0;fontSize=41;shadow=1;" vertex="1" parent="1">
                    <mxGeometry x="980" y="440" width="40" height="20" as="geometry"/>
                </mxCell>
                <mxCell id="72" value="" style="verticalLabelPosition=bottom;verticalAlign=top;html=1;shape=mxgraph.basic.acute_triangle;dx=0.5;fontSize=41;fillColor=#008a00;strokeColor=#005700;fontColor=#ffffff;shadow=1;" vertex="1" parent="1">
                    <mxGeometry x="1100" y="400" width="80" height="120" as="geometry"/>
                </mxCell>
                <mxCell id="73" value="r" style="text;html=1;strokeColor=none;fillColor=none;align=center;verticalAlign=middle;whiteSpace=wrap;rounded=0;fontSize=41;shadow=1;" vertex="1" parent="1">
                    <mxGeometry x="1120" y="470" width="40" height="20" as="geometry"/>
                </mxCell>
                <mxCell id="74" value="" style="shape=curlyBracket;whiteSpace=wrap;html=1;rounded=1;flipH=1;shadow=1;fontSize=41;verticalAlign=top;" vertex="1" parent="1">
                    <mxGeometry x="1190" y="400" width="20" height="120" as="geometry"/>
                </mxCell>
                <mxCell id="75" value="" style="shape=curlyBracket;whiteSpace=wrap;html=1;rounded=1;shadow=1;fontSize=41;verticalAlign=top;" vertex="1" parent="1">
                    <mxGeometry x="930" y="400" width="20" height="70" as="geometry"/>
                </mxCell>
                <mxCell id="76" value="h+1" style="text;html=1;strokeColor=none;fillColor=none;align=center;verticalAlign=middle;whiteSpace=wrap;rounded=0;shadow=1;fontSize=29;" vertex="1" parent="1">
                    <mxGeometry x="1230" y="447.5" width="30" height="25" as="geometry"/>
                </mxCell>
                <mxCell id="77" value="h" style="text;html=1;strokeColor=none;fillColor=none;align=center;verticalAlign=middle;whiteSpace=wrap;rounded=0;shadow=1;fontSize=29;" vertex="1" parent="1">
                    <mxGeometry x="900" y="422.5" width="30" height="25" as="geometry"/>
                </mxCell>
                <mxCell id="78" value="" style="shape=curlyBracket;whiteSpace=wrap;html=1;rounded=1;flipH=1;shadow=1;fontSize=41;verticalAlign=top;" vertex="1" parent="1">
                    <mxGeometry x="1270" y="280" width="20" height="240" as="geometry"/>
                </mxCell>
                <mxCell id="79" value="h+2" style="text;html=1;strokeColor=none;fillColor=none;align=center;verticalAlign=middle;whiteSpace=wrap;rounded=0;shadow=1;fontSize=29;" vertex="1" parent="1">
                    <mxGeometry x="1300" y="387.5" width="50" height="25" as="geometry"/>
                </mxCell>
                <mxCell id="80" value="Do Nothing&lt;br&gt;(allow height difference of 1)" style="text;html=1;strokeColor=none;fillColor=none;align=center;verticalAlign=middle;whiteSpace=wrap;rounded=0;shadow=1;fontSize=29;" vertex="1" parent="1">
                    <mxGeometry x="1360" y="355" width="210" height="100" as="geometry"/>
                </mxCell>
                <mxCell id="81" value="or" style="text;html=1;strokeColor=none;fillColor=none;align=center;verticalAlign=middle;whiteSpace=wrap;rounded=0;shadow=1;fontSize=45;" vertex="1" parent="1">
                    <mxGeometry x="845" y="392.5" width="45" height="40" as="geometry"/>
                </mxCell>
                <mxCell id="141" value="Balanced" style="text;html=1;strokeColor=none;fillColor=none;align=center;verticalAlign=middle;whiteSpace=wrap;rounded=0;shadow=1;fontSize=29;" vertex="1" parent="1">
                    <mxGeometry x="200" y="75" width="130" height="60" as="geometry"/>
                </mxCell>
                <mxCell id="142" value="| height l - height r | = 1" style="text;html=1;strokeColor=none;fillColor=none;align=center;verticalAlign=middle;whiteSpace=wrap;rounded=0;shadow=1;fontSize=29;" vertex="1" parent="1">
                    <mxGeometry x="10" y="345" width="320" height="60" as="geometry"/>
                </mxCell>
            </root>
        </mxGraphModel>
    </diagram>
</mxfile>